<svg id="Group_1235" data-name="Group 1235" xmlns="http://www.w3.org/2000/svg" width="40.202" height="40.202" viewBox="0 0 40.202 40.202">
  <g id="Code_x2C__coding_x2C__mobile_x2C__development" transform="translate(0 0)">
    <g id="XMLID_1809_">
      <g id="XMLID_1832_" transform="translate(17.423 2.677)">
        <g id="Group_1204" data-name="Group 1204">
          <g id="Group_1203" data-name="Group 1203">
            <path id="Path_7391" data-name="Path 7391" d="M18.686,4.339H14.669a.669.669,0,1,1,0-1.339h4.016a.669.669,0,1,1,0,1.339Z" transform="translate(-14 -3)" fill="#2e75e1"/>
          </g>
        </g>
      </g>
      <g id="XMLID_1831_" transform="translate(9.391 13.427)">
        <g id="Group_1206" data-name="Group 1206">
          <g id="Group_1205" data-name="Group 1205">
            <path id="Path_7392" data-name="Path 7392" d="M26.073,37.775H11.347A3.351,3.351,0,0,1,8,34.428V11.669a.669.669,0,1,1,1.339,0V34.428a2.011,2.011,0,0,0,2.008,2.008H26.073a2.011,2.011,0,0,0,2.008-2.008V11.669a.669.669,0,1,1,1.339,0V34.428A3.351,3.351,0,0,1,26.073,37.775Z" transform="translate(-8 -11)" fill="#2e75e1"/>
          </g>
        </g>
      </g>
      <g id="XMLID_1830_" transform="translate(9.391)">
        <g id="Group_1208" data-name="Group 1208">
          <g id="Group_1207" data-name="Group 1207">
            <path id="Path_7393" data-name="Path 7393" d="M28.75,19.742a.67.67,0,0,1-.669-.669V4.347a2.011,2.011,0,0,0-2.008-2.008H11.347A2.011,2.011,0,0,0,9.339,4.347V19.073a.669.669,0,0,1-1.339,0V4.347A3.351,3.351,0,0,1,11.347,1H26.073A3.351,3.351,0,0,1,29.42,4.347V19.073A.67.67,0,0,1,28.75,19.742Z" transform="translate(-8 -1)" fill="#2e75e1"/>
          </g>
        </g>
      </g>
      <g id="XMLID_1816_" transform="translate(33.508 5.355)">
        <g id="XMLID_1824_">
          <g id="Group_1210" data-name="Group 1210">
            <g id="Group_1209" data-name="Group 1209">
              <path id="Path_7394" data-name="Path 7394" d="M26.669,6.406A.616.616,0,0,1,26,5.8V5.669a.669.669,0,1,1,1.339,0,.73.73,0,0,1-.669.736Z" transform="translate(-26 -5)" fill="#2e75e1"/>
            </g>
          </g>
        </g>
        <g id="XMLID_1818_" transform="translate(0 2.677)">
          <g id="Group_1212" data-name="Group 1212">
            <g id="Group_1211" data-name="Group 1211">
              <path id="Path_7395" data-name="Path 7395" d="M26.669,8.406A.616.616,0,0,1,26,7.8V7.669a.669.669,0,1,1,1.339,0A.73.73,0,0,1,26.669,8.406Z" transform="translate(-26 -7)" fill="#2e75e1"/>
            </g>
          </g>
        </g>
        <g id="XMLID_1817_" transform="translate(0 5.355)">
          <g id="Group_1214" data-name="Group 1214">
            <g id="Group_1213" data-name="Group 1213">
              <path id="Path_7396" data-name="Path 7396" d="M26.669,10.406A.616.616,0,0,1,26,9.8V9.669a.669.669,0,1,1,1.339,0A.73.73,0,0,1,26.669,10.406Z" transform="translate(-26 -9)" fill="#2e75e1"/>
            </g>
          </g>
        </g>
      </g>
      <g id="XMLID_1820_" transform="translate(5.355 28.019)">
        <g id="XMLID_1823_">
          <g id="Group_1216" data-name="Group 1216">
            <g id="Group_1215" data-name="Group 1215">
              <path id="Path_7397" data-name="Path 7397" d="M5.669,23.306A.616.616,0,0,1,5,22.7v-.134a.669.669,0,1,1,1.339,0,.73.73,0,0,1-.669.736Z" transform="translate(-5 -21.9)" fill="#2e75e1"/>
            </g>
          </g>
        </g>
        <g id="XMLID_1822_" transform="translate(0 2.677)">
          <g id="Group_1218" data-name="Group 1218">
            <g id="Group_1217" data-name="Group 1217">
              <path id="Path_7398" data-name="Path 7398" d="M5.669,25.306A.616.616,0,0,1,5,24.7v-.134a.669.669,0,1,1,1.339,0A.73.73,0,0,1,5.669,25.306Z" transform="translate(-5 -23.9)" fill="#2e75e1"/>
            </g>
          </g>
        </g>
        <g id="XMLID_1821_" transform="translate(0 5.355)">
          <g id="Group_1220" data-name="Group 1220">
            <g id="Group_1219" data-name="Group 1219">
              <path id="Path_7399" data-name="Path 7399" d="M5.669,27.306A.616.616,0,0,1,5,26.7v-.134a.669.669,0,0,1,1.339,0,.73.73,0,0,1-.669.736Z" transform="translate(-5 -25.9)" fill="#2e75e1"/>
            </g>
          </g>
        </g>
      </g>
      <g id="XMLID_1815_" transform="translate(30.161 16.104)">
        <g id="Group_1222" data-name="Group 1222">
          <g id="Group_1221" data-name="Group 1221">
            <path id="Path_7400" data-name="Path 7400" d="M25.3,31.742a.639.639,0,0,1-.142-.015.669.669,0,0,1-.513-.8l.442-2.048a.667.667,0,0,1,.5-.509,6.414,6.414,0,0,0,1.83-.764.669.669,0,0,1,.708.007l1.325.847.821-.827-.847-1.315a.671.671,0,0,1-.009-.711,6.372,6.372,0,0,0,.763-1.83.671.671,0,0,1,.506-.5l1.526-.339V21.8l-1.525-.339a.671.671,0,0,1-.506-.5,6.41,6.41,0,0,0-.763-1.83.666.666,0,0,1,.008-.71l.849-1.327-.819-.819-1.327.849a.666.666,0,0,1-.708.007,6.446,6.446,0,0,0-1.83-.764.667.667,0,0,1-.5-.509l-.329-1.519h-.585a.669.669,0,1,1,0-1.339h1.125a.669.669,0,0,1,.653.529l.357,1.651a7.746,7.746,0,0,1,1.434.6l1.438-.92a.671.671,0,0,1,.834.091l1.581,1.58a.668.668,0,0,1,.09.834l-.92,1.438a7.77,7.77,0,0,1,.6,1.436l1.653.367a.671.671,0,0,1,.526.655v2.222a.669.669,0,0,1-.525.653l-1.653.367a7.72,7.72,0,0,1-.6,1.435l.918,1.424a.666.666,0,0,1-.087.834l-1.581,1.593a.671.671,0,0,1-.835.092l-1.438-.92a7.785,7.785,0,0,1-1.434.6l-.357,1.651A.671.671,0,0,1,25.3,31.742Z" transform="translate(-23.5 -13)" fill="#2e75e1"/>
          </g>
        </g>
      </g>
      <g id="XMLID_1810_" transform="translate(29.49 21.446)">
        <g id="Group_1224" data-name="Group 1224">
          <g id="Group_1223" data-name="Group 1223">
            <path id="Path_7401" data-name="Path 7401" d="M26.2,24.467a.669.669,0,0,1-.372-1.225,2.679,2.679,0,0,0-1.49-4.9,2.721,2.721,0,0,0-.535.054.67.67,0,1,1-.269-1.312,4.131,4.131,0,0,1,.8-.08,4.016,4.016,0,0,1,2.234,7.354A.668.668,0,0,1,26.2,24.467Z" transform="translate(-22.999 -17)" fill="#2e75e1"/>
          </g>
        </g>
      </g>
      <g id="XMLID_1293_" transform="translate(5.355 11.283)">
        <g id="Group_1226" data-name="Group 1226">
          <g id="Group_1225" data-name="Group 1225">
            <path id="Path_7402" data-name="Path 7402" d="M9.016,16.891A4.017,4.017,0,0,1,6.791,9.53a.669.669,0,0,1,.742,1.114,2.678,2.678,0,0,0,1.483,4.908,2.6,2.6,0,0,0,.525-.052A.669.669,0,1,1,9.8,16.812,3.928,3.928,0,0,1,9.016,16.891Z" transform="translate(-5 -9.418)" fill="#2e75e1"/>
          </g>
        </g>
      </g>
      <g id="XMLID_1811_" transform="translate(0 5.355)">
        <g id="Group_1228" data-name="Group 1228">
          <g id="Group_1227" data-name="Group 1227">
            <path id="Path_7403" data-name="Path 7403" d="M10.371,23.742H9.247a.669.669,0,0,1-.653-.529l-.357-1.651a7.746,7.746,0,0,1-1.434-.6l-1.438.92a.669.669,0,0,1-.834-.091l-1.581-1.58a.668.668,0,0,1-.09-.834l.92-1.438a7.77,7.77,0,0,1-.6-1.436l-1.653-.367A.671.671,0,0,1,1,15.482V13.26a.669.669,0,0,1,.525-.653l1.653-.367a7.72,7.72,0,0,1,.6-1.435L2.861,9.379a.666.666,0,0,1,.087-.834L4.529,6.952a.667.667,0,0,1,.835-.092l1.438.92a7.785,7.785,0,0,1,1.434-.6l.357-1.651A.669.669,0,0,1,9.9,5.811L9.459,7.86a.667.667,0,0,1-.5.509,6.438,6.438,0,0,0-1.831.764.669.669,0,0,1-.708-.007L5.1,8.279l-.822.827.847,1.315a.665.665,0,0,1,.009.711,6.372,6.372,0,0,0-.763,1.83.671.671,0,0,1-.506.5L2.339,13.8v1.147l1.525.339a.671.671,0,0,1,.506.5,6.41,6.41,0,0,0,.763,1.83.666.666,0,0,1-.008.71l-.849,1.325.819.819,1.327-.849a.672.672,0,0,1,.708-.007,6.446,6.446,0,0,0,1.83.764.667.667,0,0,1,.5.509L9.786,22.4h.585a.669.669,0,1,1,0,1.339Z" transform="translate(-1 -5)" fill="#2e75e1"/>
          </g>
        </g>
      </g>
      <g id="XMLID_1813_" transform="translate(13.407 16.754)">
        <g id="XMLID_1890_" transform="translate(5.355)">
          <g id="Group_1230" data-name="Group 1230">
            <g id="Group_1229" data-name="Group 1229">
              <path id="Path_7404" data-name="Path 7404" d="M15.669,20.194a.679.679,0,0,1-.162-.02.668.668,0,0,1-.487-.811l1.339-5.355a.669.669,0,1,1,1.3.324l-1.339,5.355a.667.667,0,0,1-.649.507Z" transform="translate(-15 -13.5)" fill="#2e75e1"/>
            </g>
          </g>
        </g>
        <g id="XMLID_1888_" transform="translate(9.371 0.001)">
          <g id="Group_1232" data-name="Group 1232">
            <g id="Group_1231" data-name="Group 1231">
              <path id="Path_7405" data-name="Path 7405" d="M18.669,20.193a.669.669,0,0,1-.474-1.142l2.2-2.2-2.2-2.2a.669.669,0,0,1,.946-.946l2.677,2.677a.67.67,0,0,1,0,.946L19.143,20A.672.672,0,0,1,18.669,20.193Z" transform="translate(-18 -13.501)" fill="#2e75e1"/>
            </g>
          </g>
        </g>
        <g id="XMLID_1887_" transform="translate(0 0.001)">
          <g id="Group_1234" data-name="Group 1234">
            <g id="Group_1233" data-name="Group 1233">
              <path id="Path_7406" data-name="Path 7406" d="M14.347,20.193a.672.672,0,0,1-.474-.2L11.2,17.32a.67.67,0,0,1,0-.946L13.873,13.7a.669.669,0,0,1,.946.946l-2.2,2.2,2.2,2.2a.67.67,0,0,1,0,.946A.663.663,0,0,1,14.347,20.193Z" transform="translate(-11 -13.501)" fill="#2e75e1"/>
            </g>
          </g>
        </g>
      </g>
    </g>
  </g>
</svg>
