<svg id="Group_1564" data-name="Group 1564" xmlns="http://www.w3.org/2000/svg" width="40.202" height="40.202" viewBox="0 0 40.202 40.202">
  <g id="Group_1565" data-name="Group 1565" transform="translate(0 13.401)">
    <g id="Group_1564-2" data-name="Group 1564">
      <path id="Path_7468" data-name="Path 7468" d="M24.791,170.051h-.737a.659.659,0,0,1-.62-.433c-.082-.214-.17-.424-.264-.632a.661.661,0,0,1,.134-.748l.525-.526a2.015,2.015,0,0,0,0-2.84l-1.894-1.894a2.015,2.015,0,0,0-2.841,0l-.525.525a.663.663,0,0,1-.748.134c-.208-.094-.417-.182-.633-.268a.659.659,0,0,1-.435-.622v-.737a2.01,2.01,0,0,0-2.01-2.01h-2.68a2.01,2.01,0,0,0-2.01,2.01v.737a.659.659,0,0,1-.433.62c-.214.082-.424.17-.632.264a.663.663,0,0,1-.748-.134l-.526-.525a2.015,2.015,0,0,0-2.84,0l-1.894,1.9a2.015,2.015,0,0,0,0,2.841l.525.525a.661.661,0,0,1,.134.748c-.094.208-.182.417-.265.633a.659.659,0,0,1-.625.432H2.01A2.01,2.01,0,0,0,0,172.061v2.68a2.01,2.01,0,0,0,2.01,2.01h.737a.659.659,0,0,1,.62.433c.082.214.17.424.264.632a.661.661,0,0,1-.134.748l-.525.526a2.015,2.015,0,0,0,0,2.84l1.894,1.894a2.015,2.015,0,0,0,2.841,0l.525-.525a.663.663,0,0,1,.748-.134c.208.094.417.182.633.268a.659.659,0,0,1,.438.622v.737a2.01,2.01,0,0,0,2.01,2.01h2.68a2.01,2.01,0,0,0,2.01-2.01v-.737a.659.659,0,0,1,.433-.62c.214-.082.424-.17.632-.264a.663.663,0,0,1,.748.134l.526.525a2.016,2.016,0,0,0,2.84,0l1.894-1.894a2.015,2.015,0,0,0,0-2.841l-.525-.525a.661.661,0,0,1-.134-.748c.094-.208.182-.417.268-.633a.659.659,0,0,1,.622-.435h.737a2.01,2.01,0,0,0,2.01-2.01v-2.68A2.01,2.01,0,0,0,24.791,170.051Zm.67,4.69a.67.67,0,0,1-.67.67h-.737a2.017,2.017,0,0,0-1.876,1.3q-.107.281-.23.554a2.016,2.016,0,0,0,.4,2.249l.524.525a.67.67,0,0,1,0,.948h0l-1.894,1.894a.67.67,0,0,1-.947,0l-.525-.525a2.014,2.014,0,0,0-2.249-.4c-.182.082-.367.159-.553.23a2.016,2.016,0,0,0-1.3,1.875v.737a.67.67,0,0,1-.67.67h-2.68a.67.67,0,0,1-.67-.67v-.737a2.017,2.017,0,0,0-1.3-1.876q-.281-.107-.554-.23a2.017,2.017,0,0,0-2.249.4l-.525.524a.67.67,0,0,1-.948,0h0l-1.894-1.891a.67.67,0,0,1,0-.947l.525-.525a2.016,2.016,0,0,0,.4-2.249c-.082-.182-.159-.367-.23-.553a2.016,2.016,0,0,0-1.875-1.3H2.01a.67.67,0,0,1-.67-.67v-2.68a.67.67,0,0,1,.67-.67h.737a2.017,2.017,0,0,0,1.876-1.3q.107-.281.23-.554a2.016,2.016,0,0,0-.4-2.249l-.527-.525a.67.67,0,0,1,0-.948h0l1.894-1.894a.67.67,0,0,1,.947,0l.525.525a2.014,2.014,0,0,0,2.249.4c.182-.082.367-.159.553-.23a2.016,2.016,0,0,0,1.3-1.875v-.737a.67.67,0,0,1,.67-.67h2.68a.67.67,0,0,1,.67.67v.737a2.017,2.017,0,0,0,1.3,1.876q.281.107.554.23a2.014,2.014,0,0,0,2.249-.4l.525-.524a.674.674,0,0,1,.948,0l1.894,1.894a.67.67,0,0,1,0,.947l-.525.525a2.016,2.016,0,0,0-.4,2.249c.082.182.159.367.23.553a2.016,2.016,0,0,0,1.875,1.3h.737a.67.67,0,0,1,.67.67v2.68Z" transform="translate(0 -160)" fill="#2e75e1"/>
    </g>
  </g>
  <g id="Group_1567" data-name="Group 1567" transform="translate(7.367 20.771)">
    <g id="Group_1566" data-name="Group 1566">
      <path id="Path_7469" data-name="Path 7469" d="M100.009,253.762c-.007-.161-.018-.321-.038-.48s-.047-.342-.082-.509c-.023-.109-.054-.217-.084-.326q-.056-.207-.127-.408c-.033-.093-.067-.186-.1-.277a5.971,5.971,0,0,0-.3-.627c-.009-.015-.014-.032-.023-.048a5.944,5.944,0,0,0-.6-.878c-.019-.024-.042-.047-.062-.07-.092-.109-.188-.215-.287-.316-.052-.054-.107-.105-.162-.157s-.134-.124-.2-.183-.164-.139-.249-.205l-.11-.082a5.988,5.988,0,0,0-3.593-1.2c-.067,0-.134.01-.2.013-.143,0-.286.012-.43.027-.076.008-.152.017-.228.027a6.147,6.147,0,0,0-.649.121,6.034,6.034,0,0,0,0,11.685.153.153,0,0,1,.034.006,6.391,6.391,0,0,0,.7.134c.156.019.312.023.469.031.1.005.2.021.31.021.191,0,.389-.013.592-.033a.649.649,0,0,0,.067-.009c.163-.018.328-.042.5-.076.067-.013.129-.029.194-.044.118-.027.235-.056.356-.092.094-.028.185-.061.277-.093s.187-.067.282-.1.175-.078.261-.118c.113-.052.224-.1.335-.163h0a7.931,7.931,0,0,0,1.717-1.24,2.11,2.11,0,0,0,.359-.44,7.153,7.153,0,0,0,1.009-2.754c.019-.129.036-.259.046-.391s.016-.242.019-.362c0-.038.005-.074.005-.113C100.023,253.941,100.013,253.853,100.009,253.762Zm-1.335.439c0,.056,0,.111-.008.166-.012.162-.033.324-.06.487a4.7,4.7,0,0,1-2.354,3.283c-.083.044-.165.084-.247.122l-.056.027a4.838,4.838,0,0,1-1.222.37l-.09.014c-.084.012-.166.022-.248.029-.108.009-.216.015-.327.017h-.14a4.711,4.711,0,0,1-.474-.029l-.08-.009a4.961,4.961,0,0,1-.547-.1,4.69,4.69,0,0,1,0-9.086h0a4.852,4.852,0,0,1,1.177-.147,4.632,4.632,0,0,1,.573.039c.051.006.1.015.151.023.145.023.288.052.429.088l.138.036a4.73,4.73,0,0,1,1.022.43c.052.03.1.062.153.093.106.067.208.134.31.21.054.04.109.078.161.121a4.83,4.83,0,0,1,.377.335c.048.048.091.1.137.151.077.084.152.17.224.26.05.062.1.127.144.192.067.1.134.2.194.3l.1.167a4.6,4.6,0,0,1,.23.491c.027.067.05.134.074.2.044.123.081.248.114.374.017.067.036.127.05.192a4.726,4.726,0,0,1,.085.549c0,.049,0,.1.007.147C98.677,253.891,98.68,254.046,98.674,254.2Z" transform="translate(-87.959 -248)" fill="#2e75e1"/>
    </g>
  </g>
  <g id="Group_1569" data-name="Group 1569" transform="translate(7.309)">
    <g id="Group_1568" data-name="Group 1568">
      <path id="Path_7470" data-name="Path 7470" d="M118.145,14.071h-2.107a.654.654,0,0,1-.624-.44,13.953,13.953,0,0,0-.752-1.816.656.656,0,0,1,.129-.756l1.494-1.5a2.01,2.01,0,0,0,0-2.842l-2.849-2.844a2.01,2.01,0,0,0-2.842,0L109.1,5.369a.656.656,0,0,1-.756.129,13.92,13.92,0,0,0-1.817-.756.654.654,0,0,1-.442-.624V2.01A2.01,2.01,0,0,0,104.074,0h-4.02a2.01,2.01,0,0,0-2.01,2.01V4.117a.654.654,0,0,1-.44.624,13.964,13.964,0,0,0-1.816.756.655.655,0,0,1-.756-.129l-1.5-1.494a2.014,2.014,0,0,0-2.842,0L87.85,6.718a2.01,2.01,0,0,0,0,2.842l2.2,2.2A.67.67,0,0,0,91,10.816l-2.2-2.2a.67.67,0,0,1,0-.947l2.844-2.844a.67.67,0,0,1,.947,0l1.5,1.494a1.992,1.992,0,0,0,2.3.378,12.677,12.677,0,0,1,1.642-.683,1.993,1.993,0,0,0,1.354-1.9V2.01a.67.67,0,0,1,.67-.67h4.02a.67.67,0,0,1,.67.67V4.117a1.993,1.993,0,0,0,1.354,1.9,12.637,12.637,0,0,1,1.643.683,2,2,0,0,0,2.3-.379l1.5-1.494a.67.67,0,0,1,.947,0l2.844,2.844a.67.67,0,0,1,0,.947l-1.494,1.5a1.994,1.994,0,0,0-.378,2.3,12.674,12.674,0,0,1,.683,1.642,1.993,1.993,0,0,0,1.9,1.354h2.107a.67.67,0,0,1,.67.67V20.1a.67.67,0,0,1-.67.67h-2.107a1.993,1.993,0,0,0-1.9,1.354,12.625,12.625,0,0,1-.683,1.643,2,2,0,0,0,.379,2.3l1.494,1.5a.67.67,0,0,1,0,.947l-2.845,2.844a.67.67,0,0,1-.947,0l-2.2-2.2a.67.67,0,1,0-.963.932l.016.016,2.2,2.2a2.01,2.01,0,0,0,2.842,0l2.844-2.843a2.01,2.01,0,0,0,0-2.842l-1.492-1.495a.657.657,0,0,1-.129-.756,13.922,13.922,0,0,0,.756-1.817.654.654,0,0,1,.624-.442h2.107a2.01,2.01,0,0,0,2.01-2.01v-4.02A2.01,2.01,0,0,0,118.145,14.071Z" transform="translate(-87.261)" fill="#2e75e1"/>
    </g>
  </g>
  <g id="Group_1571" data-name="Group 1571" transform="translate(15.764 9.385)">
    <g id="Group_1570" data-name="Group 1570">
      <path id="Path_7471" data-name="Path 7471" d="M200.725,114.6a8.719,8.719,0,0,0-12.318,0,.67.67,0,0,0,.947.947A7.37,7.37,0,1,1,199.847,125.9l-.07.07a.67.67,0,1,0,.931.964l.016-.016A8.719,8.719,0,0,0,200.725,114.6Z" transform="translate(-188.219 -112.049)" fill="#2e75e1"/>
    </g>
  </g>
</svg>
