<svg id="Group_1202" data-name="Group 1202" xmlns="http://www.w3.org/2000/svg" width="49.238" height="40.202" viewBox="0 0 49.238 40.202">
  <g id="Group_1201" data-name="Group 1201" transform="translate(0 0)">
    <path id="Path_7385" data-name="Path 7385" d="M42.132,46.983H7.107A7.115,7.115,0,0,0,0,54.09V80.078a7.115,7.115,0,0,0,7.107,7.107H42.132a7.114,7.114,0,0,0,7.106-7.107V54.09a7.114,7.114,0,0,0-7.106-7.107Zm-1.617,1.443h1.617A5.67,5.67,0,0,1,47.8,54.09v3.5H43.334v-3.5A7.105,7.105,0,0,0,40.515,48.426ZM1.443,54.09a5.671,5.671,0,0,1,5.664-5.664H36.228a5.67,5.67,0,0,1,5.663,5.664v3.5H1.443Zm0,25.988V59.037H41.891V80.078a5.67,5.67,0,0,1-5.663,5.664H7.107a5.671,5.671,0,0,1-5.664-5.664Zm46.353,0a5.67,5.67,0,0,1-5.663,5.664H40.515a7.111,7.111,0,0,0,2.819-5.664V59.037H47.8Z" transform="translate(0 -46.983)" fill="#2e75e1"/>
    <path id="Path_7386" data-name="Path 7386" d="M63.976,82.179a2.642,2.642,0,1,0,2.642,2.642A2.645,2.645,0,0,0,63.976,82.179Zm0,3.842a1.2,1.2,0,1,1,1.2-1.2A1.2,1.2,0,0,1,63.976,86.021Z" transform="translate(-55.436 -78.794)" fill="#2e75e1"/>
    <path id="Path_7387" data-name="Path 7387" d="M134.529,82.179a2.642,2.642,0,1,0,2.642,2.642A2.645,2.645,0,0,0,134.529,82.179Zm0,3.842a1.2,1.2,0,1,1,1.2-1.2A1.2,1.2,0,0,1,134.529,86.021Z" transform="translate(-119.204 -78.794)" fill="#2e75e1"/>
    <path id="Path_7388" data-name="Path 7388" d="M205.082,82.179a2.642,2.642,0,1,0,2.642,2.642A2.645,2.645,0,0,0,205.082,82.179Zm0,3.842a1.2,1.2,0,1,1,1.2-1.2A1.2,1.2,0,0,1,205.082,86.021Z" transform="translate(-182.972 -78.794)" fill="#2e75e1"/>
    <path id="Path_7389" data-name="Path 7389" d="M184.932,266.508a4.3,4.3,0,1,0,4.3,4.3A4.3,4.3,0,0,0,184.932,266.508Zm0,7.148a2.853,2.853,0,1,1,2.853-2.853A2.856,2.856,0,0,1,184.932,273.656Z" transform="translate(-163.265 -245.397)" fill="#2e75e1"/>
    <path id="Path_7390" data-name="Path 7390" d="M137.852,209.554l-1.314-.759a7.982,7.982,0,0,0,0-1.92l1.314-.759a2.171,2.171,0,0,0,.794-2.962l-.943-1.633a2.171,2.171,0,0,0-2.962-.794l-1.314.759a7.892,7.892,0,0,0-1.663-.961V199.01a2.171,2.171,0,0,0-2.169-2.169H127.71a2.171,2.171,0,0,0-2.169,2.169v1.516a7.88,7.88,0,0,0-1.663.961l-1.314-.759a2.171,2.171,0,0,0-2.962.794l-.943,1.633a2.171,2.171,0,0,0,.794,2.962l1.314.759a7.981,7.981,0,0,0,0,1.92l-1.314.759a2.171,2.171,0,0,0-.794,2.962l.943,1.633a2.168,2.168,0,0,0,2.962.794l1.314-.759a7.888,7.888,0,0,0,1.663.961v1.516a2.171,2.171,0,0,0,2.169,2.169H129.6a2.171,2.171,0,0,0,2.169-2.169v-1.516a7.884,7.884,0,0,0,1.663-.961l1.314.759a2.171,2.171,0,0,0,2.962-.794l.943-1.633A2.168,2.168,0,0,0,137.852,209.554ZM137.4,211.8l-.943,1.633a.727.727,0,0,1-.992.266l-1.742-1.006a.721.721,0,0,0-.831.078,6.467,6.467,0,0,1-2.085,1.205.721.721,0,0,0-.483.681v2.009a.727.727,0,0,1-.726.726H127.71a.727.727,0,0,1-.726-.726v-2.009a.721.721,0,0,0-.483-.681,6.466,6.466,0,0,1-2.085-1.205.721.721,0,0,0-.831-.078l-1.742,1.006a.726.726,0,0,1-.992-.266l-.943-1.633a.726.726,0,0,1,.266-.992l1.741-1.005a.721.721,0,0,0,.348-.757,6.553,6.553,0,0,1,0-2.41.721.721,0,0,0-.348-.757l-1.741-1.005a.726.726,0,0,1-.266-.992l.943-1.633a.727.727,0,0,1,.992-.266l1.742,1.006a.721.721,0,0,0,.831-.078A6.465,6.465,0,0,1,126.5,201.7a.721.721,0,0,0,.483-.681V199.01a.727.727,0,0,1,.726-.726H129.6a.727.727,0,0,1,.726.726v2.009a.721.721,0,0,0,.483.681,6.468,6.468,0,0,1,2.085,1.205.721.721,0,0,0,.831.078l1.742-1.006a.726.726,0,0,1,.992.266l.943,1.633a.727.727,0,0,1-.266.992l-1.741,1.005a.721.721,0,0,0-.348.757,6.552,6.552,0,0,1,0,2.411.721.721,0,0,0,.348.757l1.741,1.005A.726.726,0,0,1,137.4,211.8Z" transform="translate(-106.986 -182.429)" fill="#2e75e1"/>
  </g>
</svg>
