<svg id="Group_1200" data-name="Group 1200" xmlns="http://www.w3.org/2000/svg" width="45.566" height="40.202" viewBox="0 0 45.566 40.202">
  <path id="Path_7377" data-name="Path 7377" d="M120.629,190.8a.751.751,0,0,1-.488-.18l-4.876-4.152a.754.754,0,0,1,0-1.148l4.876-4.152a.753.753,0,1,1,.977,1.147l-4.2,3.579,4.2,3.579a.754.754,0,0,1-.489,1.328Zm0,0" transform="translate(-102.645 -161.55)" fill="#2e75e1"/>
  <path id="Path_7378" data-name="Path 7378" d="M250.461,190.8a.754.754,0,0,1-.489-1.328l4.2-3.579-4.2-3.579a.753.753,0,0,1,.977-1.147l4.876,4.152a.754.754,0,0,1,0,1.148l-4.876,4.152A.751.751,0,0,1,250.461,190.8Zm0,0" transform="translate(-222.88 -161.549)" fill="#2e75e1"/>
  <path id="Path_7379" data-name="Path 7379" d="M189.709,168.961a.766.766,0,0,1-.156-.016.754.754,0,0,1-.582-.893l3.039-14.429a.754.754,0,0,1,1.475.311l-3.039,14.429A.754.754,0,0,1,189.709,168.961Zm0,0" transform="translate(-168.652 -136.598)" fill="#2e75e1"/>
  <path id="Path_7380" data-name="Path 7380" d="M40.515,40.2H5.051A5.057,5.057,0,0,1,0,35.151V5.051A5.057,5.057,0,0,1,5.051,0H40.515a5.057,5.057,0,0,1,5.051,5.051v30.1A5.057,5.057,0,0,1,40.515,40.2ZM5.051,1.5A3.551,3.551,0,0,0,1.5,5.051v30.1A3.551,3.551,0,0,0,5.051,38.7H40.515a3.551,3.551,0,0,0,3.546-3.546V5.051A3.551,3.551,0,0,0,40.515,1.5Zm0,0" fill="#2e75e1"/>
  <path id="Path_7381" data-name="Path 7381" d="M44.813,99.6H.752a.754.754,0,0,1,0-1.507H44.813a.754.754,0,0,1,0,1.507Zm0,0" transform="translate(0 -87.549)" fill="#2e75e1"/>
  <path id="Path_7382" data-name="Path 7382" d="M99.834,39.059a2.385,2.385,0,1,1,2.385-2.385A2.388,2.388,0,0,1,99.834,39.059Zm0-3.262a.878.878,0,1,0,.878.878A.879.879,0,0,0,99.834,35.8Zm0,0" transform="translate(-86.979 -30.598)" fill="#2e75e1"/>
  <path id="Path_7383" data-name="Path 7383" d="M31.772,38.844a2.385,2.385,0,1,1,2.385-2.385A2.387,2.387,0,0,1,31.772,38.844Zm0-3.262a.878.878,0,1,0,.878.878A.879.879,0,0,0,31.772,35.581Zm0,0" transform="translate(-26.223 -30.406)" fill="#2e75e1"/>
  <path id="Path_7384" data-name="Path 7384" d="M167.9,39.273a2.385,2.385,0,1,1,2.385-2.385A2.387,2.387,0,0,1,167.9,39.273Zm0-3.262a.878.878,0,1,0,.878.878A.878.878,0,0,0,167.9,36.011Zm0,0" transform="translate(-147.732 -30.79)" fill="#2e75e1"/>
</svg>
